<svg width="74" height="74" viewBox="0 0 74 74" fill="none" xmlns="http://www.w3.org/2000/svg">
<circle cx="37" cy="37" r="37" fill="black"/>
<path d="M27.084 50.576C25.068 50.576 23.196 50.264 21.468 49.64C19.764 48.992 18.276 48.08 17.004 46.904C15.756 45.728 14.784 44.336 14.088 42.728C13.392 41.12 13.044 39.344 13.044 37.4C13.044 35.456 13.392 33.68 14.088 32.072C14.784 30.464 15.756 29.072 17.004 27.896C18.276 26.72 19.764 25.82 21.468 25.196C23.196 24.548 25.068 24.224 27.084 24.224C29.556 24.224 31.74 24.656 33.636 25.52C35.556 26.384 37.14 27.632 38.388 29.264L33.024 34.052C32.28 33.116 31.452 32.396 30.54 31.892C29.652 31.364 28.644 31.1 27.516 31.1C26.628 31.1 25.824 31.244 25.104 31.532C24.384 31.82 23.76 32.24 23.232 32.792C22.728 33.344 22.332 34.016 22.044 34.808C21.756 35.576 21.612 36.44 21.612 37.4C21.612 38.36 21.756 39.236 22.044 40.028C22.332 40.796 22.728 41.456 23.232 42.008C23.76 42.56 24.384 42.98 25.104 43.268C25.824 43.556 26.628 43.7 27.516 43.7C28.644 43.7 29.652 43.448 30.54 42.944C31.452 42.416 32.28 41.684 33.024 40.748L38.388 45.536C37.14 47.144 35.556 48.392 33.636 49.28C31.74 50.144 29.556 50.576 27.084 50.576ZM46.1373 50V31.388H38.7573V24.8H62.0133V31.388H54.6333V50H46.1373Z" fill="white"/>
</svg>
